<?xml version="1.0" encoding="utf-8"?>
<!-- Generator: Adobe Illustrator 16.0.0, SVG Export Plug-In . SVG Version: 6.00 Build 0)  -->
<!DOCTYPE svg PUBLIC "-//W3C//DTD SVG 1.1//EN" "http://www.w3.org/Graphics/SVG/1.1/DTD/svg11.dtd">
<svg version="1.1" id="Layer_1" xmlns="http://www.w3.org/2000/svg" xmlns:xlink="http://www.w3.org/1999/xlink" x="0px" y="0px"
	 width="333.854px" height="333.85px" viewBox="252.059 125.792 333.854 333.85"
	 enable-background="new 252.059 125.792 333.854 333.85" xml:space="preserve">
<path fill="#EC4B53" d="M554.401,211.635l-54.336-54.337L344.642,312.72l54.336,54.336L554.401,211.635z"/>
<path fill="#FFFFFF" d="M385.656,380.378l-54.336-54.336l13.321-13.327l54.336,54.336l-13.327,13.327H385.656z"/>
<path fill="#15BDB1" d="M385.656,380.378l-54.336-54.336l-19.494,19.494c-3.561,3.555-3.555,9.375,0,12.936l41.406,41.407
	c3.555,3.555,9.375,3.555,12.93,0l19.494-19.495V380.378L385.656,380.378z"/>
<path fill="#FF5B61" d="M539.5,196.728l-24.529-24.523L359.549,327.627l24.528,24.524L539.5,196.728z"/>
<path fill="#F0B97D" d="M554.401,211.635l-54.336-54.337l56.798-21.817l19.362,19.355l-21.818,56.799H554.401z"/>
<path fill="#807D7D" d="M585.907,127.658l-1.866-1.866l-27.179,9.689l19.362,19.355l9.688-27.174L585.907,127.658z"/>
<path fill="#FED198" d="M539.5,196.728l-24.529-24.523l47.209-31.414l8.738,8.734l-31.413,47.202L539.5,196.728L539.5,196.728z"/>
<g>
	<path fill="#FFBA1B" d="M436.674,421.227c0,0,2.087,8.701-14.199,21.94c-16.285,13.239-30.772,16.474-30.772,16.474
		s3.235-14.481,16.474-30.773c13.239-16.292,21.939-14.199,21.939-14.199l3.793,2.772L436.674,421.227z"/>
	<path fill="#FFBA1B" d="M461.91,388.93l-1.253-83.552l-51.796,51.791l24.877,62.552L461.91,388.93z"/>
</g>
<path fill="#20D0C2" d="M474.934,397.67l-0.597,0.502l-0.607,0.514l-0.618,0.519l-0.635,0.529l-0.646,0.536l-0.651,0.546l0,0
	l-0.657,0.553l-0.673,0.558l-0.679,0.563l0,0l-0.689,0.568l-0.696,0.569l0,0l-0.701,0.58l-0.702,0.579l-0.712,0.586l-0.713,0.586
	l0,0l-0.717,0.579l0,0l-0.718,0.586l-0.723,0.591l-0.718,0.585l0,0l-0.723,0.586l0,0l-0.724,0.586l-0.717,0.58l-0.006,0.006
	l-0.718,0.579l0,0l-0.712,0.58l-0.713,0.573v0.007l-0.706,0.573l0,0l-0.706,0.563v0.006l-0.702,0.563l-0.689,0.558l0,0l-0.685,0.552
	l-0.68,0.546l0,0l-0.668,0.536h-0.006l-0.657,0.529l-0.646,0.519l-0.641,0.514v0.007l-0.624,0.497h-0.006l-0.613,0.491l-0.602,0.485
	l-0.59,0.47l-0.006,0.006l-0.574,0.458l-0.563,0.447l0,0l-0.541,0.436l0,0l-0.524,0.42h-0.006l-0.509,0.409l0,0l-0.491,0.392l0,0
	l-0.475,0.382l-0.453,0.364l0,0l-0.43,0.348l0,0l-0.414,0.331l0,0l-0.392,0.31l0,0l-0.364,0.298h-0.007l-0.348,0.276l0,0
	l-0.326,0.253l-0.298,0.238l0,0l-0.275,0.221h-0.006l-0.249,0.193l0,0l-0.222,0.178l0,0l-0.188,0.154h-0.006l-0.166,0.126l0,0
	l-0.138,0.11l0,0l-0.109,0.082l0,0l-0.078,0.062l-0.05,0.038l0,0l-0.017,0.011v0.006l-7.35-7.349l-7.354-7.349
	c0,0,17.474-22.062,28.085-34.6c5.538-6.542,23.232-16.292,29.989-8.768c0.116,0.105,0.231,0.215,0.342,0.326
	s0.215,0.222,0.314,0.337l0,0c0.099,0.116,0.198,0.238,0.293,0.354c0.094,0.122,0.182,0.242,0.265,0.369
	c0.089,0.127,0.172,0.253,0.243,0.381c0.077,0.127,0.149,0.26,0.221,0.398l0,0c0.072,0.133,0.138,0.271,0.199,0.409v0.006
	l0.177,0.419c0.055,0.144,0.104,0.287,0.154,0.437l0.137,0.441l0,0l0.116,0.458l0,0l0.095,0.463v0.007
	c0.027,0.153,0.05,0.313,0.071,0.47l0,0l0.056,0.485l0.033,0.491l0,0l0.017,0.502l0,0l-0.006,0.508l0,0l-0.017,0.514l0,0
	l-0.034,0.519v0.007l-0.05,0.524l0,0l-0.071,0.529l-0.083,0.542l-0.1,0.541l0,0l-0.109,0.546l-0.127,0.553l-0.144,0.552
	l-0.149,0.558l-0.166,0.557l0,0l-0.182,0.559l-0.188,0.557l0,0l-0.198,0.557v0.007l-0.216,0.557l-0.221,0.557v0.006l-0.232,0.558
	l-0.242,0.558l-0.249,0.553h0.007l-0.26,0.546l-0.266,0.547l-0.275,0.541l-0.282,0.536l-0.287,0.529l-0.293,0.524l-0.304,0.519
	v0.006l-0.304,0.515l-0.31,0.508l-0.314,0.497l-0.32,0.491l-0.32,0.485l-0.32,0.47l-0.326,0.464l-0.331,0.453l-0.326,0.442
	l-0.325,0.43l-0.331,0.414l-0.331,0.409l-0.326,0.392l-0.331,0.375l-0.325,0.365l-0.331,0.348l-0.32,0.331l-0.32,0.32l-0.321,0.304
	l-0.309,0.286l-0.311,0.266V397.67z M484.043,368.007L484.043,368.007l0.313,0.337C484.258,368.228,484.148,368.117,484.043,368.007
	z"/>
<path fill="#FFFFFF" d="M442.46,426.184l-17.27-17.27c-0.392-0.393-1.037-0.393-1.43,0l-5.525,5.525
	c-0.393,0.393-0.393,1.038,0,1.43l17.27,17.271c0.393,0.392,1.038,0.392,1.43,0l5.525-5.526
	C442.853,427.223,442.853,426.577,442.46,426.184z"/>
<path fill="#15BDB1" d="M464.477,374.152c-3.08,1.96-5.72,4.146-7.332,6.046c-8.479,9.959-21.371,25.958-26.175,31.942
	c-0.453,0.563-0.833,1.044-1.132,1.419l-3.451-3.45c0.586-0.734,1.491-1.872,2.634-3.308c5.609-7.028,16.977-21.211,24.699-30.343
	c2.197-2.6,6.311-5.698,10.894-8.021c6.967-3.539,15.022-5.283,19.096-0.746l0.342,0.326l0.314,0.342l0.557,0.724l0.243,0.381
	l0.221,0.398l0.078,0.204c-4.941-3.571-14.084-0.304-20.984,4.092L464.477,374.152z"/>
<g>
	<path fill="#FFBA1B" d="M290.473,275.024c0,0-8.707-2.093-21.94,14.199c-13.239,16.292-16.474,30.772-16.474,30.772
		s14.487-3.229,30.779-16.469c16.285-13.239,14.199-21.945,14.199-21.945l-2.772-3.787l-3.786-2.771L290.473,275.024
		L290.473,275.024z"/>
	<path fill="#FFBA1B" d="M322.769,249.789l83.552,1.253l-51.796,51.791l-62.551-24.872l30.789-28.167L322.769,249.789z"/>
</g>
<path fill="#20D0C2" d="M314.03,236.765l-0.502,0.596l-0.515,0.607l-0.519,0.624l-0.529,0.63l-0.536,0.646l-0.541,0.651l0,0
	l-0.552,0.662l-0.558,0.673l-0.563,0.68l0,0l-0.563,0.685l-0.573,0.695h-0.007l-0.573,0.702l-0.58,0.706l-0.579,0.707l-0.586,0.717
	l-0.586,0.717l0,0l-0.586,0.724l-0.585,0.717l0,0l-0.586,0.724l-0.586,0.723l0,0l-0.586,0.724l-0.579,0.717l0,0l-0.58,0.718l0,0
	l-0.58,0.712l0,0l-0.573,0.713l0,0l-0.569,0.706l0,0l-0.568,0.706l0,0l-0.563,0.696l-0.557,0.689l0,0l-0.552,0.685l-0.547,0.68
	v0.006l-0.535,0.668l0,0l-0.529,0.657l-0.52,0.646h-0.006l-0.514,0.641v0.006l-0.502,0.624l0,0l-0.491,0.618l-0.48,0.602l0,0
	l-0.47,0.585l-0.458,0.574l0,0l-0.447,0.557l0,0l-0.436,0.547l0,0l-0.42,0.524l0,0l-0.414,0.508l-0.386,0.491l0,0l-0.381,0.47l0,0
	l-0.359,0.453h-0.006l-0.348,0.431l0,0l-0.326,0.413v0.006l-0.31,0.393h-0.006l-0.293,0.369l0,0l-0.276,0.348h-0.006l-0.253,0.32
	l0,0l-0.238,0.298l0,0l-0.215,0.271l-0.198,0.248l0,0l-0.178,0.222l0,0l-0.154,0.193l0,0l-0.132,0.166l-0.11,0.138l0,0l-0.089,0.109
	l0,0l-0.061,0.078l0,0l-0.038,0.044h-0.006l-0.011,0.017l0,0l7.349,7.35l7.354,7.354c0,0,22.062-17.474,34.599-28.085
	c6.542-5.538,16.292-23.232,8.768-29.989c-0.11-0.116-0.215-0.226-0.325-0.342c-0.116-0.11-0.226-0.215-0.342-0.314l0,0
	c-0.116-0.105-0.231-0.198-0.354-0.293s-0.243-0.182-0.369-0.27l0,0c-0.127-0.083-0.254-0.167-0.382-0.243l0,0
	c-0.133-0.077-0.26-0.154-0.397-0.221l0,0c-0.138-0.072-0.271-0.138-0.409-0.199l0,0l-0.42-0.171
	c-0.144-0.061-0.286-0.109-0.437-0.153l-0.446-0.133l0,0l-0.453-0.11l0,0l-0.464-0.095l0,0c-0.154-0.027-0.314-0.055-0.475-0.077
	h-0.006l-0.485-0.055l-0.491-0.034l-0.502-0.017l0,0h-0.508l0,0l-0.515,0.021v-0.006l-0.524,0.038l0,0l-0.529,0.055l0,0
	l-0.536,0.066l-0.541,0.082l-0.542,0.1l0,0l-0.546,0.109l-0.552,0.127l-0.553,0.138l-0.559,0.154l-0.557,0.166l-0.563,0.177
	l-0.558,0.193l0,0l-0.563,0.199l0,0l-0.558,0.21l-0.557,0.221l0,0l-0.557,0.232l-0.558,0.242l-0.552,0.249l0,0l-0.553,0.26
	l-0.546,0.27l-0.542,0.276l-0.535,0.282l-0.535,0.287l-0.525,0.292l-0.519,0.298l0,0l-0.514,0.304l-0.508,0.31l-0.497,0.314
	l-0.492,0.314l-0.48,0.32l-0.475,0.326l-0.457,0.326l-0.453,0.326l-0.442,0.331l-0.431,0.332l-0.419,0.331l-0.403,0.326
	l-0.392,0.331l-0.382,0.331l-0.364,0.326l-0.348,0.326l-0.337,0.32l-0.314,0.32l-0.304,0.314l-0.282,0.31l-0.271,0.314
	L314.03,236.765z M343.693,227.656L343.693,227.656l-0.342-0.314C343.467,227.44,343.577,227.552,343.693,227.656z"/>
<path fill="#FFFFFF" d="M285.514,269.233l17.27,17.27c0.393,0.392,0.393,1.037,0,1.43l-5.525,5.525
	c-0.392,0.393-1.037,0.398-1.43,0.007l-17.274-17.271c-0.392-0.392-0.392-1.037,0-1.43l5.526-5.525c0.392-0.393,1.037-0.393,1.43,0
	L285.514,269.233z"/>
<path fill="#15BDB1" d="M337.548,247.221c-1.961,3.08-4.146,5.72-6.046,7.337c-9.959,8.479-25.958,21.371-31.938,26.169
	c-0.569,0.458-1.044,0.839-1.419,1.137l3.445,3.444c0.739-0.585,1.876-1.49,3.307-2.633c7.033-5.604,21.211-16.971,30.343-24.7
	c2.596-2.196,5.698-6.31,8.021-10.893c3.54-6.967,5.284-15.022,0.751-19.096l-0.325-0.342l-0.342-0.314l-0.723-0.558l-0.382-0.242
	l-0.397-0.222l-0.205-0.082c3.572,4.946,0.298,14.083-4.091,20.984L337.548,247.221L337.548,247.221z"/>
<path fill="#20D0C2" d="M369.636,364.357l-22.294-22.298l-20.405,20.404c-3.059,3.06-3.059,8.056,0,11.108l11.19,11.19
	c3.053,3.053,8.056,3.053,11.108,0l20.405-20.405H369.636z"/>
<g>
	<path fill="#FFFFFF" d="M290.103,385.485l22.134-20.271l4.659,5.129L290.103,385.485z"/>
	<path fill="#FFFFFF" d="M324.999,421.74l17.821-24.932l5.034,4.67l-22.861,20.262H324.999z"/>
	<path fill="#FFFFFF" d="M337.763,420.174l12.4-16.606l3.693,3.169l-16.088,13.438H337.763z"/>
	<path fill="#FFFFFF" d="M290.782,375.217l16.766-15.408l2.064,2.848l-18.826,12.561H290.782z"/>
</g>
</svg>
